<svg width="208" height="87" viewBox="0 0 208 87" fill="none" xmlns="http://www.w3.org/2000/svg">
<path d="M21.2 62.44C21.2 59.2667 20.5467 56.7067 19.24 54.76C17.96 52.7867 15.9467 51.8 13.2 51.8C11.5467 51.8 10.08 52.3333 8.8 53.4C8.08 54.52 7.50667 56.0267 7.08 57.92C6.68 59.8133 6.48 61.6133 6.48 63.32C6.48 66.4667 7.12 68.9867 8.4 70.88C9.68 72.7733 11.7067 73.72 14.48 73.72C16 73.72 17.2933 73.1067 18.36 71.88C20.2533 69.6667 21.2 66.52 21.2 62.44ZM13.12 77.48C9.22667 77.48 6.26667 76.2 4.24 73.64C2.21333 71.0533 1.2 67.68 1.2 63.52C1.2 59.3333 2.45333 55.72 4.96 52.68C7.46667 49.64 10.6533 48.12 14.52 48.12C18.4133 48.12 21.3733 49.4267 23.4 52.04C25.4533 54.6533 26.48 58.0533 26.48 62.24C26.48 66.4267 25.2267 70.0133 22.72 73C20.2133 75.9867 17.0133 77.48 13.12 77.48ZM42.7753 63.4C43.9753 65.9333 45.4953 68.1467 47.3353 70.04C49.1753 71.9333 51.002 73.16 52.8153 73.72C52.8153 74.84 52.522 75.7067 51.9353 76.32C51.3486 76.9333 50.5086 77.24 49.4153 77.24C48.002 77.24 46.3886 76.3333 44.5753 74.52C42.762 72.68 41.1753 70.52 39.8153 68.04C38.482 65.5333 37.6953 63.3333 37.4553 61.44C39.3753 61.44 40.9486 60.9333 42.1753 59.92C43.4286 58.88 44.0553 57.4133 44.0553 55.52C44.0553 53.12 42.562 51.92 39.5753 51.92C38.6153 51.92 37.442 52.08 36.0553 52.4C35.8686 56 35.7753 58.9067 35.7753 61.12C35.7753 68.2133 36.0553 73.3467 36.6153 76.52C35.762 76.84 34.8553 77 33.8953 77C32.9353 77 32.0953 76.6933 31.3753 76.08C30.682 75.4667 30.3353 74.6533 30.3353 73.64C30.3353 72.6267 30.4686 70.8667 30.7353 68.36C31.002 65.8267 31.1353 63.8 31.1353 62.28C31.1353 57.6133 30.802 53.4667 30.1353 49.84C33.7353 48.8533 37.162 48.36 40.4153 48.36C46.362 48.36 49.3353 50.48 49.3353 54.72C49.3353 56.5867 48.6953 58.3467 47.4153 60C46.162 61.6267 44.6153 62.76 42.7753 63.4ZM55.6031 75.2C56.4298 71.2267 56.8431 67.1067 56.8431 62.84C56.8431 58.5733 56.5098 54.2533 55.8431 49.88C59.4698 48.8667 62.6831 48.36 65.4831 48.36C69.6431 48.36 72.8031 49.4533 74.9631 51.64C77.1498 53.8 78.2431 57.0933 78.2431 61.52C78.2431 65.9467 77.0031 69.68 74.5231 72.72C72.0698 75.7333 68.6565 77.24 64.2831 77.24C61.2965 77.24 58.4031 76.56 55.6031 75.2ZM61.8031 52.4C61.5631 55.6533 61.4431 58.8133 61.4431 61.88C61.4431 64.92 61.5898 68.6 61.8831 72.92C62.9765 73.2933 64.2031 73.48 65.5631 73.48C66.9231 73.48 68.0965 73.1733 69.0831 72.56C70.0965 71.92 70.8698 71.0533 71.4031 69.96C72.4431 67.88 72.9631 65.3333 72.9631 62.32C72.9631 59.4133 72.4031 57.0133 71.2831 55.12C70.0565 52.9867 68.1498 51.92 65.5631 51.92C64.1498 51.92 62.8965 52.08 61.8031 52.4ZM99.8931 71.48C100.213 72.2 100.373 73.0133 100.373 73.92C100.373 74.8267 100.053 75.6133 99.4131 76.28C98.7998 76.92 98.0398 77.24 97.1331 77.24C94.3065 77.24 89.8798 77.08 83.8531 76.76C83.3731 76.7333 82.9465 76.5867 82.5731 76.32C82.1998 76.0267 82.0131 75.6667 82.0131 75.24C82.0131 73.8267 82.1198 71.44 82.3331 68.08C82.5731 64.72 82.6931 61.5867 82.6931 58.68C82.6931 55.7467 82.4131 52.3867 81.8531 48.6C83.8265 48.76 86.4798 48.84 89.8131 48.84C93.1465 48.84 96.3331 48.6 99.3731 48.12C99.6931 48.7067 99.8531 49.4133 99.8531 50.24C99.8531 51.04 99.5331 51.76 98.8931 52.4C98.2798 53.0133 97.5065 53.32 96.5731 53.32C95.6665 53.32 94.1998 53.1867 92.1731 52.92C90.1731 52.6533 88.6931 52.52 87.7331 52.52C87.5198 55.2133 87.3998 57.7467 87.3731 60.12C89.0531 60.28 90.8531 60.36 92.7731 60.36C94.7198 60.36 96.3865 60.08 97.7731 59.52C98.0931 60.1067 98.2531 60.8133 98.2531 61.64C98.2531 62.44 97.9331 63.1733 97.2931 63.84C96.6798 64.48 95.9331 64.8 95.0531 64.8C94.1998 64.8 92.9198 64.64 91.2131 64.32C89.5065 63.9733 88.2131 63.8 87.3331 63.8C87.3331 68.0133 87.4265 71.1067 87.6131 73.08C88.8931 73.1867 89.8931 73.24 90.6131 73.24C94.1331 73.24 97.2265 72.6533 99.8931 71.48ZM116.643 63.4C117.843 65.9333 119.363 68.1467 121.203 70.04C123.043 71.9333 124.869 73.16 126.683 73.72C126.683 74.84 126.389 75.7067 125.803 76.32C125.216 76.9333 124.376 77.24 123.283 77.24C121.869 77.24 120.256 76.3333 118.443 74.52C116.629 72.68 115.043 70.52 113.683 68.04C112.349 65.5333 111.563 63.3333 111.323 61.44C113.243 61.44 114.816 60.9333 116.043 59.92C117.296 58.88 117.923 57.4133 117.923 55.52C117.923 53.12 116.429 51.92 113.443 51.92C112.483 51.92 111.309 52.08 109.923 52.4C109.736 56 109.643 58.9067 109.643 61.12C109.643 68.2133 109.923 73.3467 110.483 76.52C109.629 76.84 108.723 77 107.763 77C106.803 77 105.963 76.6933 105.243 76.08C104.549 75.4667 104.202 74.6533 104.202 73.64C104.202 72.6267 104.336 70.8667 104.603 68.36C104.869 65.8267 105.003 63.8 105.003 62.28C105.003 57.6133 104.669 53.4667 104.003 49.84C107.603 48.8533 111.029 48.36 114.283 48.36C120.229 48.36 123.203 50.48 123.203 54.72C123.203 56.5867 122.563 58.3467 121.283 60C120.029 61.6267 118.483 62.76 116.643 63.4ZM129.71 49.88C133.55 48.8667 136.897 48.36 139.75 48.36C145.857 48.36 148.91 50.48 148.91 54.72C148.91 57.3067 147.697 59.28 145.27 60.64C146.897 61.04 148.244 61.8133 149.31 62.96C150.377 64.08 150.91 65.4933 150.91 67.2C150.91 70.4 149.724 72.88 147.35 74.64C144.977 76.3733 142.044 77.24 138.55 77.24C135.057 77.24 132.03 76.5467 129.47 75.16C130.297 72.28 130.71 68.4 130.71 63.52C130.71 58.6133 130.377 54.0667 129.71 49.88ZM135.75 72.92C136.924 73.2933 138.097 73.48 139.27 73.48C141.11 73.48 142.63 73.0267 143.83 72.12C145.03 71.1867 145.63 69.88 145.63 68.2C145.63 65 143.897 63.4 140.43 63.4C138.777 63.4 137.097 63.7467 135.39 64.44C135.39 67.1333 135.51 69.96 135.75 72.92ZM135.35 60.92C135.724 60.84 136.27 60.7467 136.99 60.64C137.737 60.5333 138.31 60.44 138.71 60.36C139.11 60.28 139.604 60.16 140.19 60C140.804 59.84 141.27 59.6533 141.59 59.44C141.937 59.2 142.284 58.9067 142.63 58.56C143.297 57.8933 143.63 56.92 143.63 55.64C143.63 53.16 142.15 51.92 139.19 51.92C138.23 51.92 137.057 52.08 135.67 52.4C135.457 57.8667 135.35 60.7067 135.35 60.92ZM161.22 76.52C160.367 76.84 159.46 77 158.5 77C157.54 77 156.7 76.6933 155.98 76.08C155.287 75.4667 154.94 74.6267 154.94 73.56C154.94 72.4933 155.073 70.4533 155.34 67.44C155.607 64.4 155.74 61.9733 155.74 60.16C155.74 55.4933 155.46 51.8 154.9 49.08C155.753 48.76 156.66 48.6 157.62 48.6C158.58 48.6 159.407 48.9067 160.1 49.52C160.82 50.1333 161.18 50.9733 161.18 52.04C161.18 53.1067 161.047 55.16 160.78 58.2C160.513 61.2133 160.38 63.6267 160.38 65.44C160.38 70.1067 160.66 73.8 161.22 76.52ZM167.073 48.48L175.513 48.6C179.886 48.6 183.086 48.44 185.113 48.12C185.406 48.68 185.553 49.32 185.553 50.04C185.553 50.76 185.233 51.4133 184.593 52C183.953 52.56 183.179 52.84 182.273 52.84L177.673 52.32C177.673 52.5067 177.606 53.3333 177.473 54.8C177.099 58.4 176.913 62.0133 176.913 65.64C176.913 69.2667 177.193 72.8933 177.753 76.52C176.873 76.84 175.953 77 174.993 77C174.033 77 173.206 76.7333 172.513 76.2C171.819 75.64 171.473 74.8133 171.473 73.72C171.473 72.6 171.606 70.64 171.873 67.84C172.139 65.04 172.273 62.32 172.273 59.68C172.273 57.0133 172.139 54.5333 171.873 52.24C168.646 52.4 166.126 52.8533 164.313 53.6C163.993 52.9867 163.833 52.3067 163.833 51.56C163.833 50.7867 164.139 50.08 164.753 49.44C165.366 48.8 166.139 48.48 167.073 48.48ZM206.143 71.48C206.463 72.2 206.623 73.0133 206.623 73.92C206.623 74.8267 206.303 75.6133 205.663 76.28C205.05 76.92 204.29 77.24 203.383 77.24C200.556 77.24 196.13 77.08 190.103 76.76C189.623 76.7333 189.196 76.5867 188.823 76.32C188.45 76.0267 188.263 75.6667 188.263 75.24C188.263 73.8267 188.37 71.44 188.583 68.08C188.823 64.72 188.943 61.5867 188.943 58.68C188.943 55.7467 188.663 52.3867 188.103 48.6C190.076 48.76 192.73 48.84 196.063 48.84C199.396 48.84 202.583 48.6 205.623 48.12C205.943 48.7067 206.103 49.4133 206.103 50.24C206.103 51.04 205.783 51.76 205.143 52.4C204.53 53.0133 203.756 53.32 202.823 53.32C201.916 53.32 200.45 53.1867 198.423 52.92C196.423 52.6533 194.943 52.52 193.983 52.52C193.77 55.2133 193.65 57.7467 193.623 60.12C195.303 60.28 197.103 60.36 199.023 60.36C200.97 60.36 202.636 60.08 204.023 59.52C204.343 60.1067 204.503 60.8133 204.503 61.64C204.503 62.44 204.183 63.1733 203.543 63.84C202.93 64.48 202.183 64.8 201.303 64.8C200.45 64.8 199.17 64.64 197.463 64.32C195.756 63.9733 194.463 63.8 193.583 63.8C193.583 68.0133 193.676 71.1067 193.863 73.08C195.143 73.1867 196.143 73.24 196.863 73.24C200.383 73.24 203.476 72.6533 206.143 71.48Z" fill="#2E8B57"/>
<path d="M56.875 21.875C56.8719 18.9752 55.7186 16.195 53.6681 14.1445C51.6176 12.094 48.8374 10.9407 45.9375 10.9375C45.5918 10.9375 45.2461 10.9571 44.9043 10.9883C44.0224 9.10607 42.6225 7.51408 40.8683 6.39884C39.1142 5.2836 37.0787 4.69128 35 4.69128C32.9214 4.69128 30.8858 5.2836 29.1317 6.39884C27.3776 7.51408 25.9776 9.10607 25.0957 10.9883C24.754 10.9571 24.4082 10.9375 24.0625 10.9375C21.5797 10.9382 19.1709 11.7835 17.2322 13.3346C15.2935 14.8857 13.9402 17.0503 13.3948 19.4725C12.8494 21.8947 13.1444 24.4304 14.2312 26.6627C15.3181 28.8951 17.1321 30.6912 19.375 31.7559V40.625C19.375 41.4539 19.7043 42.2487 20.2903 42.8348C20.8764 43.4208 21.6712 43.75 22.5 43.75H47.5C48.3288 43.75 49.1237 43.4208 49.7098 42.8348C50.2958 42.2487 50.625 41.4539 50.625 40.625V31.7559C52.4936 30.8673 54.0723 29.4676 55.1784 27.7189C56.2845 25.9703 56.8727 23.9442 56.875 21.875ZM47.5 40.625H22.5V32.6993C23.0175 32.7747 23.5397 32.8125 24.0625 32.8125H45.9375C46.4604 32.8125 46.9826 32.7747 47.5 32.6993V40.625ZM45.9375 29.6875H43.252L44.3282 25.379C44.4207 24.9798 44.3528 24.5602 44.1389 24.2107C43.9251 23.8611 43.5825 23.6096 43.185 23.5102C42.7875 23.4108 42.3668 23.4716 42.0137 23.6794C41.6605 23.8872 41.4031 24.2254 41.2969 24.6211L40.0293 29.6875H36.5625V25C36.5625 24.5856 36.3979 24.1882 36.1049 23.8952C35.8119 23.6022 35.4144 23.4375 35 23.4375C34.5856 23.4375 34.1882 23.6022 33.8952 23.8952C33.6022 24.1882 33.4375 24.5856 33.4375 25V29.6875H29.9707L28.7032 24.6211C28.6563 24.4191 28.5697 24.2283 28.4483 24.0601C28.327 23.8918 28.1734 23.7494 27.9964 23.6412C27.8194 23.5329 27.6227 23.461 27.4176 23.4296C27.2126 23.3982 27.0033 23.4079 26.8021 23.4582C26.6008 23.5085 26.4116 23.5984 26.2455 23.7226C26.0793 23.8468 25.9396 24.0029 25.8344 24.1817C25.7292 24.3605 25.6606 24.5584 25.6327 24.764C25.6048 24.9695 25.6182 25.1786 25.6719 25.379L26.7481 29.6875H24.0625C21.9905 29.6875 20.0034 28.8644 18.5383 27.3993C17.0731 25.9342 16.25 23.9471 16.25 21.875C16.25 19.803 17.0731 17.8159 18.5383 16.3508C20.0034 14.8856 21.9905 14.0625 24.0625 14.0625H24.1758C24.1001 14.5799 24.0622 15.1022 24.0625 15.625C24.0625 16.0394 24.2272 16.4369 24.5202 16.7299C24.8132 17.0229 25.2106 17.1875 25.625 17.1875C26.0394 17.1875 26.4369 17.0229 26.7299 16.7299C27.0229 16.4369 27.1875 16.0394 27.1875 15.625C27.1875 13.553 28.0106 11.5659 29.4758 10.1008C30.9409 8.63565 32.928 7.81255 35 7.81255C37.0721 7.81255 39.0592 8.63565 40.5243 10.1008C41.9894 11.5659 42.8125 13.553 42.8125 15.625C42.8125 16.0394 42.9772 16.4369 43.2702 16.7299C43.5632 17.0229 43.9606 17.1875 44.375 17.1875C44.7894 17.1875 45.1869 17.0229 45.4799 16.7299C45.7729 16.4369 45.9375 16.0394 45.9375 15.625C45.9379 15.1022 45.9 14.5799 45.8243 14.0625H45.9375C48.0095 14.0625 49.9967 14.8856 51.4618 16.3508C52.9269 17.8159 53.75 19.803 53.75 21.875C53.75 23.9471 52.9269 25.9342 51.4618 27.3993C49.9967 28.8644 48.0095 29.6875 45.9375 29.6875Z" fill="#0D0E0D"/>
</svg>
