<svg width="241" height="50" viewBox="0 0 241 50" fill="none" xmlns="http://www.w3.org/2000/svg">
<g clip-path="url(#clip0_20_31)">
<path d="M25 50C38.8071 50 50 38.8071 50 25C50 11.1929 38.8071 0 25 0C11.1929 0 0 11.1929 0 25C0 38.8071 11.1929 50 25 50Z" fill="#FFCC4D"/>
<path d="M9.72089 23.6112C9.48435 23.6109 9.25183 23.5501 9.04536 23.4347C8.83889 23.3193 8.66531 23.153 8.54109 22.9517C8.41686 22.7505 8.3461 22.5208 8.33552 22.2845C8.32494 22.0482 8.37488 21.8131 8.48061 21.6015C8.55283 21.4557 10.3112 18.0557 15.2778 18.0557C20.2459 18.0557 22.0028 21.4571 22.0751 21.6015C22.2227 21.9275 22.2389 22.298 22.1203 22.6357C22.0017 22.9734 21.7575 23.2523 21.4384 23.4145C21.1193 23.5766 20.75 23.6094 20.4073 23.5061C20.0646 23.4028 19.775 23.1713 19.5987 22.8598C19.5376 22.7473 18.4445 20.8334 15.2778 20.8334C12.0598 20.8334 10.9737 22.8237 10.9639 22.8432C10.8488 23.0742 10.6715 23.2686 10.4518 23.4043C10.2322 23.54 9.97906 23.6117 9.72089 23.6112ZM40.2778 23.6112C40.5144 23.6109 40.7469 23.5501 40.9534 23.4347C41.1598 23.3193 41.3334 23.153 41.4576 22.9517C41.5819 22.7505 41.6526 22.5208 41.6632 22.2845C41.6738 22.0482 41.6238 21.8131 41.5181 21.6015C41.4459 21.4557 39.6876 18.0557 34.7209 18.0557C29.7528 18.0557 27.9959 21.4571 27.9237 21.6015C27.776 21.9275 27.7598 22.298 27.8784 22.6357C27.997 22.9734 28.2412 23.2523 28.5603 23.4145C28.8794 23.5766 29.2487 23.6094 29.5914 23.5061C29.9341 23.4028 30.2238 23.1713 30.4001 22.8598C30.4612 22.7473 31.5542 20.8334 34.7209 20.8334C37.9389 20.8334 39.0251 22.8237 39.0348 22.8432C39.1499 23.0742 39.3273 23.2686 39.5469 23.4043C39.7665 23.54 40.0197 23.6117 40.2778 23.6112ZM40.9764 32.6668C41.4251 31.6265 41.6167 30.9209 41.6237 30.8932C41.6681 30.7162 41.6772 30.5323 41.6505 30.3519C41.6239 30.1714 41.5619 29.998 41.4682 29.8415C41.3745 29.685 41.2509 29.5485 41.1045 29.4397C40.958 29.331 40.7916 29.2522 40.6146 29.2077C40.4377 29.1633 40.2538 29.1542 40.0733 29.1809C39.8929 29.2075 39.7195 29.2695 39.563 29.3632C39.4064 29.4569 39.2699 29.5805 39.1612 29.727C39.0525 29.8734 38.9736 30.0399 38.9292 30.2168C38.8264 30.6265 36.2237 40.2779 25.0001 40.2779C13.7764 40.2779 11.1737 30.6265 11.0695 30.2154C10.9798 29.8581 10.7518 29.551 10.4358 29.3618C10.1197 29.1726 9.74139 29.1167 9.38408 29.2064C9.02678 29.2961 8.71974 29.524 8.53051 29.8401C8.34128 30.1562 8.28536 30.5345 8.37506 30.8918C8.40561 31.014 11.5709 43.0557 25.0001 43.0557C27.2917 43.0557 29.2639 42.6862 30.9931 42.1043C37.007 40.0793 39.8459 35.2848 40.9764 32.6668Z" fill="#664500"/>
<path d="M21.7217 44.2425L24.1601 38.8698C24.1601 38.8698 24.3801 37.7681 22.7783 37.5137C20.6729 37.1785 17.9294 36.3259 15.3861 34.5525C14.3179 33.8074 12.761 32.3934 12.3103 31.7379C11.7178 30.8741 10.8671 31.7271 10.8671 31.7271C11.3289 32.4185 11.7909 32.9321 11.7909 32.9321L11.559 33.4653L9.42353 38.3754C8.06984 41.4879 9.38349 45.8547 12.9859 47.4214C16.5883 48.9882 20.3672 47.3567 21.7217 44.2425Z" fill="#E75B70"/>
<path d="M17.0505 36.2985C16.956 36.2675 16.8563 36.2555 16.7572 36.2631C16.658 36.2707 16.5613 36.2978 16.4726 36.3428C16.384 36.3878 16.305 36.4498 16.2403 36.5253C16.1756 36.6008 16.1264 36.6883 16.0955 36.7829L13.8804 43.558L15.307 44.074L17.5368 37.2541C17.5986 37.0629 17.5821 36.855 17.491 36.6759C17.3999 36.4968 17.2415 36.3611 17.0505 36.2985Z" fill="#DE3146"/>
</g>
<path d="M71.64 12.88C75.48 11.8667 78.8267 11.36 81.68 11.36C87.7867 11.36 90.84 13.48 90.84 17.72C90.84 20.3067 89.6267 22.28 87.2 23.64C88.8267 24.04 90.1733 24.8133 91.24 25.96C92.3067 27.08 92.84 28.4933 92.84 30.2C92.84 33.4 91.6533 35.88 89.28 37.64C86.9067 39.3733 83.9733 40.24 80.48 40.24C76.9867 40.24 73.96 39.5467 71.4 38.16C72.2267 35.28 72.64 31.4 72.64 26.52C72.64 21.6133 72.3067 17.0667 71.64 12.88ZM77.68 35.92C78.8533 36.2933 80.0267 36.48 81.2 36.48C83.04 36.48 84.56 36.0267 85.76 35.12C86.96 34.1867 87.56 32.88 87.56 31.2C87.56 28 85.8267 26.4 82.36 26.4C80.7067 26.4 79.0267 26.7467 77.32 27.44C77.32 30.1333 77.44 32.96 77.68 35.92ZM77.28 23.92C77.6533 23.84 78.2 23.7467 78.92 23.64C79.6667 23.5333 80.24 23.44 80.64 23.36C81.04 23.28 81.5333 23.16 82.12 23C82.7333 22.84 83.2 22.6533 83.52 22.44C83.8667 22.2 84.2133 21.9067 84.56 21.56C85.2267 20.8933 85.56 19.92 85.56 18.64C85.56 16.16 84.08 14.92 81.12 14.92C80.16 14.92 78.9867 15.08 77.6 15.4C77.3867 20.8667 77.28 23.7067 77.28 23.92ZM96.8297 12.08C97.683 11.76 98.603 11.6 99.5897 11.6C101.963 11.6 103.15 12.68 103.15 14.84C103.15 16.0133 103.016 17.9467 102.75 20.64C102.483 23.3067 102.35 26.08 102.35 28.96C102.35 31.84 102.443 34.2267 102.63 36.12C103.35 36.2 104.07 36.24 104.79 36.24C108.31 36.24 111.403 35.6533 114.07 34.48C114.39 35.2 114.55 36.0133 114.55 36.92C114.55 37.8267 114.23 38.6133 113.59 39.28C112.976 39.92 112.216 40.24 111.31 40.24C109.416 40.24 105.27 40.08 98.8697 39.76C98.363 39.7333 97.923 39.5867 97.5497 39.32C97.1764 39.0267 96.9897 38.6667 96.9897 38.24C96.9897 36.8267 97.0964 34.44 97.3097 31.08C97.5497 27.72 97.6697 24.6267 97.6697 21.8C97.6697 18.9467 97.3897 15.7067 96.8297 12.08ZM123.577 14.84C123.577 16.84 123.377 19.48 122.977 22.76C122.603 26.04 122.417 28.5733 122.417 30.36C122.417 32.1467 122.897 33.64 123.857 34.84C124.817 36.0133 126.243 36.6 128.137 36.6C128.91 36.6 129.843 36.4133 130.937 36.04C132.03 35.6667 132.897 35.1867 133.537 34.6C133.883 31.64 134.057 27.84 134.057 23.2C134.057 18.5333 133.723 14.7467 133.057 11.84C133.91 11.52 134.817 11.36 135.777 11.36C136.737 11.36 137.563 11.6667 138.257 12.28C138.977 12.8933 139.337 13.6933 139.337 14.68C139.337 15.6667 139.217 17.36 138.977 19.76C138.763 22.16 138.657 24.8533 138.657 27.84C138.657 30.8 138.79 33.4133 139.057 35.68C135.163 38.88 131.217 40.48 127.217 40.48C124.177 40.48 121.803 39.7067 120.097 38.16C118.417 36.5867 117.577 34.32 117.577 31.36C117.577 30.4267 117.657 28.7467 117.817 26.32C118.003 23.8667 118.097 22.08 118.097 20.96C118.097 16.9333 117.83 13.9733 117.297 12.08C118.15 11.76 119.057 11.6 120.017 11.6C120.977 11.6 121.803 11.9067 122.497 12.52C123.217 13.1333 123.577 13.9067 123.577 14.84ZM161.979 34.48C162.299 35.2 162.459 36.0133 162.459 36.92C162.459 37.8267 162.139 38.6133 161.499 39.28C160.886 39.92 160.126 40.24 159.219 40.24C156.392 40.24 151.966 40.08 145.939 39.76C145.459 39.7333 145.032 39.5867 144.659 39.32C144.286 39.0267 144.099 38.6667 144.099 38.24C144.099 36.8267 144.206 34.44 144.419 31.08C144.659 27.72 144.779 24.5867 144.779 21.68C144.779 18.7467 144.499 15.3867 143.939 11.6C145.912 11.76 148.566 11.84 151.899 11.84C155.232 11.84 158.419 11.6 161.459 11.12C161.779 11.7067 161.939 12.4133 161.939 13.24C161.939 14.04 161.619 14.76 160.979 15.4C160.366 16.0133 159.592 16.32 158.659 16.32C157.752 16.32 156.286 16.1867 154.259 15.92C152.259 15.6533 150.779 15.52 149.819 15.52C149.606 18.2133 149.486 20.7467 149.459 23.12C151.139 23.28 152.939 23.36 154.859 23.36C156.806 23.36 158.472 23.08 159.859 22.52C160.179 23.1067 160.339 23.8133 160.339 24.64C160.339 25.44 160.019 26.1733 159.379 26.84C158.766 27.48 158.019 27.8 157.139 27.8C156.286 27.8 155.006 27.64 153.299 27.32C151.592 26.9733 150.299 26.8 149.419 26.8C149.419 31.0133 149.512 34.1067 149.699 36.08C150.979 36.1867 151.979 36.24 152.699 36.24C156.219 36.24 159.312 35.6533 161.979 34.48ZM166.288 12.88C170.128 11.8667 173.475 11.36 176.328 11.36C182.435 11.36 185.488 13.48 185.488 17.72C185.488 20.3067 184.275 22.28 181.848 23.64C183.475 24.04 184.822 24.8133 185.888 25.96C186.955 27.08 187.488 28.4933 187.488 30.2C187.488 33.4 186.302 35.88 183.928 37.64C181.555 39.3733 178.622 40.24 175.128 40.24C171.635 40.24 168.608 39.5467 166.048 38.16C166.875 35.28 167.288 31.4 167.288 26.52C167.288 21.6133 166.955 17.0667 166.288 12.88ZM172.328 35.92C173.502 36.2933 174.675 36.48 175.848 36.48C177.688 36.48 179.208 36.0267 180.408 35.12C181.608 34.1867 182.208 32.88 182.208 31.2C182.208 28 180.475 26.4 177.008 26.4C175.355 26.4 173.675 26.7467 171.968 27.44C171.968 30.1333 172.088 32.96 172.328 35.92ZM171.928 23.92C172.302 23.84 172.848 23.7467 173.568 23.64C174.315 23.5333 174.888 23.44 175.288 23.36C175.688 23.28 176.182 23.16 176.768 23C177.382 22.84 177.848 22.6533 178.168 22.44C178.515 22.2 178.862 21.9067 179.208 21.56C179.875 20.8933 180.208 19.92 180.208 18.64C180.208 16.16 178.728 14.92 175.768 14.92C174.808 14.92 173.635 15.08 172.248 15.4C172.035 20.8667 171.928 23.7067 171.928 23.92ZM210.278 25.44C210.278 22.2667 209.625 19.7067 208.318 17.76C207.038 15.7867 205.025 14.8 202.278 14.8C200.625 14.8 199.158 15.3333 197.878 16.4C197.158 17.52 196.585 19.0267 196.158 20.92C195.758 22.8133 195.558 24.6133 195.558 26.32C195.558 29.4667 196.198 31.9867 197.478 33.88C198.758 35.7733 200.785 36.72 203.558 36.72C205.078 36.72 206.371 36.1067 207.438 34.88C209.331 32.6667 210.278 29.52 210.278 25.44ZM202.198 40.48C198.305 40.48 195.345 39.2 193.318 36.64C191.291 34.0533 190.278 30.68 190.278 26.52C190.278 22.3333 191.531 18.72 194.038 15.68C196.545 12.64 199.731 11.12 203.598 11.12C207.491 11.12 210.451 12.4267 212.478 15.04C214.531 17.6533 215.558 21.0533 215.558 25.24C215.558 29.4267 214.305 33.0133 211.798 36C209.291 38.9867 206.091 40.48 202.198 40.48ZM240.213 37.44C240.213 38.1867 239.907 38.84 239.293 39.4C238.707 39.96 237.973 40.24 237.093 40.24C236.24 40.24 235.413 39.9733 234.613 39.44C233.813 38.9067 233.12 38.3067 232.533 37.64C231.973 36.9733 231.36 36.0267 230.693 34.8C229.68 32.96 228.667 30.8667 227.653 28.52C224.213 32.6533 222.333 36.48 222.013 40C218.653 40 216.973 38.8933 216.973 36.68C216.973 35.9333 217.32 35.0933 218.013 34.16C218.733 33.2 219.987 31.76 221.773 29.84C223.587 27.92 225.027 26.3333 226.093 25.08C223 18.28 219.973 14.88 217.013 14.88C217.013 13.8667 217.307 13.0667 217.893 12.48C218.48 11.8933 219.28 11.6 220.293 11.6C222.08 11.6 223.76 12.52 225.333 14.36C226.933 16.2 228.333 18.5867 229.533 21.52C232.36 18.4 233.907 15.0133 234.173 11.36C237.533 11.36 239.213 12.3867 239.213 14.44C239.213 15.1867 238.853 16.0267 238.133 16.96C237.413 17.8667 236.28 19.1067 234.733 20.68C233.187 22.2533 231.933 23.6133 230.973 24.76C231.8 26.7067 232.347 27.9467 232.613 28.48C232.907 29.0133 233.267 29.7333 233.693 30.64C234.147 31.52 234.533 32.1733 234.853 32.6C235.173 33 235.547 33.4667 235.973 34C236.4 34.5333 236.827 34.92 237.253 35.16C237.68 35.3733 238.107 35.48 238.533 35.48C238.96 35.48 239.36 35.4 239.733 35.24C240.053 35.96 240.213 36.6933 240.213 37.44Z" fill="#6375BD"/>
<defs>
<clipPath id="clip0_20_31">
<rect width="50" height="50" fill="white"/>
</clipPath>
</defs>
</svg>
