<svg width="50" height="50" viewBox="0 0 50 50" fill="none" xmlns="http://www.w3.org/2000/svg">
<g clip-path="url(#clip0_26_2)">
<path d="M25 50C38.8071 50 50 38.8071 50 25C50 11.1929 38.8071 0 25 0C11.1929 0 0 11.1929 0 25C0 38.8071 11.1929 50 25 50Z" fill="#FFCC4D"/>
<path d="M9.72083 23.6112C9.48429 23.6109 9.25177 23.5501 9.0453 23.4347C8.83883 23.3193 8.66525 23.153 8.54103 22.9517C8.4168 22.7505 8.34604 22.5208 8.33546 22.2845C8.32488 22.0482 8.37482 21.8131 8.48055 21.6015C8.55277 21.4557 10.3111 18.0557 15.2778 18.0557C20.2458 18.0557 22.0028 21.4571 22.075 21.6015C22.2226 21.9275 22.2389 22.298 22.1203 22.6357C22.0017 22.9734 21.7574 23.2523 21.4383 23.4145C21.1192 23.5766 20.7499 23.6094 20.4072 23.5061C20.0645 23.4028 19.7749 23.1713 19.5986 22.8598C19.5375 22.7473 18.4444 20.8334 15.2778 20.8334C12.0597 20.8334 10.9736 22.8237 10.9639 22.8432C10.8488 23.0742 10.6714 23.2686 10.4518 23.4043C10.2322 23.54 9.979 23.6117 9.72083 23.6112ZM40.2778 23.6112C40.5143 23.6109 40.7468 23.5501 40.9533 23.4347C41.1598 23.3193 41.3334 23.153 41.4576 22.9517C41.5818 22.7505 41.6526 22.5208 41.6631 22.2845C41.6737 22.0482 41.6238 21.8131 41.518 21.6015C41.4458 21.4557 39.6875 18.0557 34.7208 18.0557C29.7528 18.0557 27.9958 21.4571 27.9236 21.6015C27.776 21.9275 27.7597 22.298 27.8783 22.6357C27.9969 22.9734 28.2412 23.2523 28.5603 23.4145C28.8794 23.5766 29.2487 23.6094 29.5914 23.5061C29.9341 23.4028 30.2237 23.1713 30.4 22.8598C30.4611 22.7473 31.5542 20.8334 34.7208 20.8334C37.9389 20.8334 39.025 22.8237 39.0347 22.8432C39.1498 23.0742 39.3272 23.2686 39.5468 23.4043C39.7664 23.54 40.0196 23.6117 40.2778 23.6112ZM40.9764 32.6668C41.425 31.6265 41.6167 30.9209 41.6236 30.8932C41.668 30.7162 41.6771 30.5323 41.6505 30.3519C41.6238 30.1714 41.5619 29.998 41.4682 29.8415C41.3745 29.685 41.2509 29.5485 41.1044 29.4397C40.9579 29.331 40.7915 29.2522 40.6146 29.2077C40.4377 29.1633 40.2537 29.1542 40.0733 29.1809C39.8928 29.2075 39.7194 29.2695 39.5629 29.3632C39.4064 29.4569 39.2699 29.5805 39.1611 29.727C39.0524 29.8734 38.9736 30.0399 38.9292 30.2168C38.8264 30.6265 36.2236 40.2779 25 40.2779C13.7764 40.2779 11.1736 30.6265 11.0694 30.2154C10.9797 29.8581 10.7518 29.551 10.4357 29.3618C10.1196 29.1726 9.74133 29.1167 9.38402 29.2064C9.02672 29.2961 8.71968 29.524 8.53045 29.8401C8.34122 30.1562 8.2853 30.5345 8.375 30.8918C8.40555 31.014 11.5708 43.0557 25 43.0557C27.2917 43.0557 29.2639 42.6862 30.9931 42.1043C37.0069 40.0793 39.8458 35.2848 40.9764 32.6668Z" fill="#664500"/>
<path d="M21.7216 44.2425L24.1601 38.8698C24.1601 38.8698 24.38 37.7681 22.7782 37.5137C20.6729 37.1785 17.9293 36.3259 15.386 34.5525C14.3178 33.8074 12.7609 32.3934 12.3102 31.7379C11.7178 30.8741 10.867 31.7271 10.867 31.7271C11.3288 32.4185 11.7908 32.9321 11.7908 32.9321L11.559 33.4653L9.42346 38.3754C8.06978 41.4879 9.38343 45.8547 12.9858 47.4214C16.5882 48.9882 20.3672 47.3567 21.7216 44.2425Z" fill="#E75B70"/>
<path d="M17.0505 36.2985C16.956 36.2675 16.8563 36.2555 16.7572 36.2631C16.658 36.2707 16.5613 36.2978 16.4726 36.3428C16.384 36.3878 16.305 36.4498 16.2403 36.5253C16.1756 36.6008 16.1264 36.6883 16.0955 36.7829L13.8804 43.558L15.307 44.074L17.5368 37.2541C17.5986 37.0629 17.5821 36.855 17.491 36.6759C17.3999 36.4968 17.2415 36.3611 17.0505 36.2985Z" fill="#DE3146"/>
</g>
<defs>
<clipPath id="clip0_26_2">
<rect width="50" height="50" fill="white"/>
</clipPath>
</defs>
</svg>
