<svg width="61" height="60" viewBox="0 0 61 60" fill="none" xmlns="http://www.w3.org/2000/svg">
<rect width="60" height="60" transform="translate(0.965515)" fill="white"/>
<path d="M57.2155 26.25C57.2118 22.7702 55.8278 19.434 53.3672 16.9734C50.9066 14.5128 47.5703 13.1288 44.0905 13.125C43.6757 13.125 43.2608 13.1485 42.8507 13.186C41.7924 10.9273 40.1124 9.01687 38.0075 7.67858C35.9026 6.34029 33.4599 5.62952 30.9655 5.62952C28.4712 5.62952 26.0285 6.34029 23.9236 7.67858C21.8186 9.01687 20.1386 10.9273 19.0804 13.186C18.6702 13.1485 18.2554 13.125 17.8405 13.125C14.8611 13.1258 11.9706 14.1402 9.64413 16.0015C7.31767 17.8628 5.69374 20.4603 5.03927 23.367C4.3848 26.2736 4.73875 29.3164 6.04294 31.9953C7.34713 34.6741 9.52393 36.8294 12.2155 38.1071V48.75C12.2155 49.7446 12.6106 50.6984 13.3139 51.4017C14.0171 52.1049 14.971 52.5 15.9655 52.5H45.9655C46.9601 52.5 47.9139 52.1049 48.6172 51.4017C49.3204 50.6984 49.7155 49.7446 49.7155 48.75V38.1071C51.9578 37.0407 53.8522 35.3611 55.1795 33.2627C56.5068 31.1643 57.2127 28.733 57.2155 26.25ZM45.9655 48.75H15.9655V39.2391C16.5864 39.3296 17.2131 39.375 17.8405 39.375H44.0905C44.718 39.375 45.3446 39.3296 45.9655 39.2391V48.75ZM44.0905 35.625H40.8679L42.1593 30.4547C42.2703 29.9757 42.1888 29.4722 41.9322 29.0528C41.6756 28.6333 41.2645 28.3315 40.7875 28.2122C40.3104 28.0929 39.8057 28.1658 39.3819 28.4152C38.9581 28.6646 38.6492 29.0704 38.5218 29.5453L37.0007 35.625H32.8405V30C32.8405 29.5028 32.643 29.0258 32.2913 28.6742C31.9397 28.3226 31.4628 28.125 30.9655 28.125C30.4682 28.125 29.9913 28.3226 29.6397 28.6742C29.2881 29.0258 29.0905 29.5028 29.0905 30V35.625H24.9304L23.4093 29.5453C23.353 29.3028 23.2491 29.074 23.1035 28.8721C22.9579 28.6702 22.7735 28.4993 22.5612 28.3694C22.3488 28.2395 22.1127 28.1532 21.8666 28.1155C21.6206 28.0778 21.3695 28.0895 21.128 28.1498C20.8865 28.2102 20.6594 28.3181 20.46 28.4671C20.2607 28.6162 20.093 28.8034 19.9667 29.018C19.8405 29.2325 19.7582 29.4701 19.7248 29.7168C19.6913 29.9634 19.7073 30.2143 19.7718 30.4547L21.0632 35.625H17.8405C15.3541 35.625 12.9695 34.6373 11.2114 32.8792C9.45324 31.121 8.46552 28.7364 8.46552 26.25C8.46552 23.7636 9.45324 21.3791 11.2114 19.6209C12.9695 17.8628 15.3541 16.875 17.8405 16.875H17.9765C17.8856 17.4959 17.8401 18.1226 17.8405 18.75C17.8405 19.2473 18.0381 19.7242 18.3897 20.0759C18.7413 20.4275 19.2182 20.625 19.7155 20.625C20.2128 20.625 20.6897 20.4275 21.0413 20.0759C21.393 19.7242 21.5905 19.2473 21.5905 18.75C21.5905 16.2636 22.5782 13.8791 24.3364 12.1209C26.0945 10.3628 28.4791 9.37503 30.9655 9.37503C33.4519 9.37503 35.8365 10.3628 37.5946 12.1209C39.3528 13.8791 40.3405 16.2636 40.3405 18.75C40.3405 19.2473 40.5381 19.7242 40.8897 20.0759C41.2413 20.4275 41.7182 20.625 42.2155 20.625C42.7128 20.625 43.1897 20.4275 43.5413 20.0759C43.893 19.7242 44.0905 19.2473 44.0905 18.75C44.0909 18.1226 44.0455 17.4959 43.9546 16.875H44.0905C46.5769 16.875 48.9615 17.8628 50.7196 19.6209C52.4778 21.3791 53.4655 23.7636 53.4655 26.25C53.4655 28.7364 52.4778 31.121 50.7196 32.8792C48.9615 34.6373 46.5769 35.625 44.0905 35.625Z" fill="#FF2442"/>
</svg>
